# xmcd CD database file
#
# Track frame offsets:
#	150
#	12215
#	27138
#	40592
#	52161
#	67837
#	81481
#	94850
#	107084
#	120498
#	135129
#	147786
#	163019
#	172330
#	185882
#	199129
#
# Disc length: 3003 seconds
#
# Revision: 1
# Processed by: cddbd v1.5.1PL2 Copyright (c) Steve Scherf et al.
# Submitted via: CDex 1.51
#
DISCID=da0bb910
DTITLE=Various Artist - Ultimate Piano Works [CD 3)
DYEAR=1900
DGENRE=Jazz
TTITLE0=Willie Smith - Concentrating
TTITLE1=Earl Hines - A Monday Date
TTITLE2=Pete Johnson - Death Ray Boogie
TTITLE3=Bud Powell - Taking A Chance Of Love
TTITLE4=Teddy Wilson - Out Of Nowhere
TTITLE5=Dave Brubeck - The Way You Look Tonight
TTITLE6=George Shearing - Cozy's Bop
TTITLE7=Erroll Garner - Ain't She Sweet
TTITLE8=Willie Smith - The Lion And The Lamb
TTITLE9=Erroll Garner - Please Don't Talk About Me When I'm Gone
TTITLE10=Earl Hines - Stowaway
TTITLE11=Oscar Peterson - Body And Soul
TTITLE12=Sammy Price - Stormy Weather
TTITLE13=Art Tatum - Cherokee
TTITLE14=Jimmy Yancey - Crying In My Sleep
TTITLE15=Oscar Peterson Trio - Tenderly
EXTD=
EXTT0=
EXTT1=
EXTT2=
EXTT3=
EXTT4=
EXTT5=
EXTT6=
EXTT7=
EXTT8=
EXTT9=
EXTT10=
EXTT11=
EXTT12=
EXTT13=
EXTT14=
EXTT15=
PLAYORDER=
